<svg width="159" height="209" viewBox="0 0 159 209" fill="none" xmlns="http://www.w3.org/2000/svg">
<path fill-rule="evenodd" clip-rule="evenodd" d="M3.54242 115.676C5.48453 115.867 7.42665 116.057 9.36812 116.248C18.6693 116.961 27.966 118.449 37.1957 119.341C37.4255 118.967 37.8748 119.028 38.1484 119.289C39.0689 119.208 40.1015 118.502 40.9357 119.236C40.9628 119.232 40.9898 119.228 41.0169 119.225C42.5026 116.368 43.5293 113.319 44.5258 110.267C45.1618 108.39 46.0173 106.574 47.5989 105.313C50.2974 103.436 56.481 99.6271 59.6501 99.7871C59.7029 99.2188 59.9668 98.6324 60.4013 98.2538C59.4441 96.6179 63.2717 95.5503 63.5414 95.7399C63.3683 90.2743 65.9329 85.528 71.588 84.4398C76.6534 83.3819 83.8593 83.2038 86.5835 88.5114C86.8835 88.4772 89.9451 88.4617 90.2412 88.4946C90.7014 87.9102 95.7593 93.4506 93.6864 95.38C112.219 103.598 122.757 102.618 127.887 125.722C128.58 127.892 128.63 130.268 129.363 132.39C131.968 138.488 134.081 144.982 134.607 151.617C135.877 151.944 136.023 154.189 134.552 154.513C133.99 154.637 133.52 154.807 133.11 155.129C133.431 160.567 132.119 172.989 131.292 172.95C129.607 178.328 122.088 179.845 116.766 177.956C117.683 179.686 116.766 180.774 116.766 181.699C97.6135 182.425 76.6728 182.007 57.5258 183.003C55.0764 182.968 52.5003 183.606 50.0844 183.239C48.6115 182.885 48.6089 180.562 50.103 180.275L43.5737 178.854C43.7198 178.799 40.8823 176.907 38.7374 173.371C36.7412 169.416 38.1001 164.642 37.1957 160.34C30.1308 159.76 22.9501 159.513 15.9631 158.314C15.0104 161.171 10.886 157.754 9.5754 156.379C9.57733 156.377 9.57861 156.375 9.58055 156.373C8.94584 156.198 8.43729 155.602 8.41991 154.897C7.97511 154.26 7.88176 153.361 8.30855 152.746C6.35292 141.434 3.37183 129.885 2.29422 118.467C1.91379 118.383 1.55458 118.216 1.25075 117.958L1.27522 117.933C0.760239 117.357 0.659821 116.363 1.51918 115.874C2.21184 115.479 2.79054 115.601 3.54242 115.676Z" fill="white"/>
<path fill-rule="evenodd" clip-rule="evenodd" d="M86.2308 87.2788C85.6533 85.8249 83.7029 86.3899 83.9204 87.9174C84.0505 88.8321 84.5506 89.7984 84.9993 90.6002C85.3649 91.253 85.7821 91.8897 86.3473 92.3787C85.3405 93.3205 84.2964 94.2268 83.2252 95.0879C82.0562 96.0278 80.8273 96.8935 79.5566 97.6895C78.443 98.3874 77.2785 99.006 76.2286 99.8027C75.252 100.543 74.363 101.433 73.9105 102.596C73.4284 103.834 73.6376 105.112 73.9929 106.349L74.0335 106.489C74.3959 107.715 75.0242 109.192 74.1532 110.347C73.7103 110.935 73.0659 111.351 72.5098 111.821C72.0147 112.239 71.5506 112.694 71.1251 113.181C70.1969 114.245 69.4418 115.442 68.9654 116.776L68.9229 116.897C68.5148 118.077 68.2161 119.524 68.7678 120.683C68.9261 121.015 69.4366 120.907 69.5255 120.583C69.7263 119.851 69.7154 119.083 69.8834 118.339C70.0585 117.566 70.3494 116.833 70.7299 116.138C71.465 114.795 72.4615 113.648 73.6382 112.679L73.9903 112.391C74.9083 111.636 75.7516 110.835 75.9382 109.585C76.1371 108.248 75.6029 106.974 75.2591 105.708C75.0196 104.826 74.9418 103.98 75.2005 103.183C75.5166 103.701 75.9479 104.192 76.2891 104.63C76.9688 105.502 77.6544 106.37 78.3387 107.239C79.0404 108.13 79.7246 109.035 80.3761 109.964C80.6677 110.379 80.9561 110.797 81.2432 111.215C81.4595 111.529 81.7607 111.843 81.9963 112.164C81.939 112.336 81.9436 112.534 82.0472 112.674C83.296 114.366 85.0733 110.836 85.5368 109.944C86.4805 108.127 87.1835 106.198 88.1304 104.381C89.1114 102.499 90.2289 100.667 91.4739 98.948C92.2271 97.9088 93.0716 96.9322 93.7604 95.8594C95.3841 97.3353 97.5204 98.3249 99.4825 99.2215C101.638 100.207 103.878 101.012 106.089 101.867L106.742 102.122C110.55 103.611 114.452 105.248 117.617 107.895C121.337 111.005 123.538 115.34 125.177 119.829C127.063 124.997 128.623 130.304 130.077 135.608C130.822 138.321 131.528 141.047 132.192 143.782C132.777 146.192 133.262 148.625 133.939 151.01C132.566 150.961 130.999 151.493 129.826 151.648C124.482 152.349 119.209 153.467 114.163 155.403C113.54 155.642 113.36 156.266 113.495 156.771C113.136 156.669 112.777 156.567 112.417 156.466C112.811 155.861 112.623 154.779 112.592 154.109L112.59 154.063C112.558 153.169 112.462 152.275 112.399 151.383C112.28 149.683 112.124 147.996 111.917 146.305L111.865 145.883C111.631 144.044 111.457 142.194 111.202 140.358L111.172 140.149C111.294 139.678 111.437 139.215 111.587 138.753C111.986 137.523 112.549 136.364 113.042 135.173C113.101 135.032 112.901 134.952 112.808 135.036C111.972 135.789 111.308 136.746 110.775 137.746C110.766 137.699 110.758 137.652 110.748 137.605L110.687 137.304C110.537 136.572 110.354 135.801 109.906 135.207C109.858 135.144 109.764 135.131 109.719 135.207C109.29 135.935 109.242 136.856 109.176 137.684C109.101 138.621 109.092 139.569 109.105 140.509C109.131 142.344 109.26 144.185 109.363 146.017C109.464 147.818 109.662 149.596 109.917 151.379L109.965 151.713C110.09 152.562 110.192 153.421 110.357 154.264L110.403 154.494C110.491 154.912 110.546 155.501 110.721 155.99C106.214 154.73 101.7 153.499 97.1782 152.289C93.9097 151.415 90.6377 150.554 87.3676 149.687C87.1951 149.374 86.9801 149.083 86.7116 148.824C85.8284 147.966 84.6575 147.582 83.5831 148.243C83.4962 148.297 83.4885 148.434 83.5831 148.486C83.7891 148.598 83.9951 148.715 84.1979 148.835L82.2339 148.302C80.7662 147.903 79.2805 147.404 77.7786 147.126C75.0113 145.758 72.0347 144.767 69.1199 143.788L68.7768 143.671C67.284 143.161 65.7404 142.59 64.198 142.307C63.0689 142.1 61.7441 142.35 61.2903 143.51C60.7154 143.889 60.1747 144.335 59.6526 144.774C59.2754 145.091 58.9137 145.429 58.5461 145.756L58.4785 145.816C58.1779 146.077 57.9397 146.253 57.8657 146.669C57.8277 146.884 57.9642 147.175 58.2287 147.146C59.0379 147.059 59.6958 146.119 60.2449 145.558C60.6691 145.123 61.0965 144.674 61.4834 144.197C61.7087 144.32 62.0183 144.298 62.1619 144.026C62.9067 142.612 64.9466 143.591 66.0757 143.927L67.6921 144.407C68.5006 144.647 69.3092 144.889 70.1158 145.134C72.3334 145.809 74.5394 146.565 76.777 147.184C76.5768 147.405 76.6045 147.797 76.9849 147.947C78.7359 148.636 80.6574 148.992 82.4772 149.465C83.6256 149.763 84.774 150.063 85.9218 150.366C86.1181 150.685 86.2597 151.047 86.3196 151.468C86.5385 153.015 86.1162 154.801 85.7048 156.297L85.6424 156.521C85.3044 157.724 84.8068 159.199 83.7711 159.959C83.5181 160.144 83.1962 160.273 82.8718 160.302C80.8447 159.256 78.8176 158.21 76.7892 157.166C76.4133 156.973 76.0657 157.234 75.9814 157.546C75.2662 157.429 74.5529 157.243 73.9028 157.022C72.811 156.65 71.9581 155.941 70.9346 155.451C68.9532 154.502 66.9306 155.668 65.1571 156.553L64.7477 156.755C63.9527 157.142 62.2977 157.885 61.9166 156.827C61.5471 155.803 62.7142 154.709 63.468 154.248C64.3666 153.699 65.4127 153.405 66.4278 153.16C67.0078 153.02 67.5943 152.906 68.1846 152.823C68.8547 152.729 69.5461 152.743 70.1911 152.525C70.511 152.417 70.5606 151.907 70.1911 151.822C69.1984 151.596 68.014 151.843 66.9782 152.095L66.4369 152.229C65.3934 152.486 64.3396 152.808 63.3888 153.32C62.6981 153.692 61.9681 154.258 61.4918 154.951C61.0779 154.566 60.5629 154.579 60.0266 154.721L59.7351 154.803C59.2542 154.936 58.8647 155.028 58.3967 154.935C58.3343 154.594 58.2706 154.253 58.203 153.912C57.5361 150.556 56.8048 147.213 55.9982 143.888C54.6065 138.153 52.9959 132.48 51.1799 126.866L50.9978 126.305C50.5794 125.021 50.242 123.622 49.5668 122.442C48.9282 121.326 47.9053 120.684 46.69 120.344C45.3111 119.958 43.8614 119.756 42.4543 119.495C42.1408 119.437 41.826 119.382 41.5118 119.324C41.7771 118.844 41.9753 118.299 42.1536 117.88L42.1852 117.808C42.5688 116.931 42.9132 116.039 43.246 115.142L43.4945 114.468C44.0951 112.843 44.715 111.246 45.5596 109.728C46.4486 108.129 47.6279 106.822 49.0981 105.741C52.0947 103.536 55.7073 102.411 58.6143 100.054C58.7334 99.9575 58.5808 99.7924 58.4598 99.853C56.4971 100.842 54.378 101.514 52.3367 102.319L51.9337 102.478C50.3199 103.12 48.681 103.818 47.2848 104.856C45.7276 106.014 44.5006 107.452 43.5788 109.161C42.6705 110.847 42.0893 112.733 41.4488 114.533L41.2769 115.013C41.0187 115.733 40.7516 116.449 40.4458 117.149C40.2025 117.705 39.7493 118.339 39.5433 118.974C38.9794 118.876 38.4162 118.778 37.8516 118.684C25.6299 116.638 13.2716 115.436 0.885727 115.084C0.401657 115.071 0.150589 115.534 0.222046 115.958C1.41101 123.004 2.46736 130.074 3.62605 137.125C4.13203 140.202 4.6483 143.277 5.17615 146.351C5.44394 147.908 5.75293 149.46 6.00655 151.019C6.21062 152.278 6.35931 153.548 6.71014 154.778C7.02557 155.881 7.509 156.945 8.30272 157.787C9.15823 158.694 10.3523 159.133 11.5548 159.34C14.6067 159.867 17.7372 160.082 20.8142 160.433L37.1944 162.301C36.9549 164.482 36.9369 166.629 37.047 168.835L37.1094 170.04C37.1609 171.009 37.2221 171.979 37.3605 172.939C37.5349 174.141 38.084 175.159 38.8925 176.058C39.6347 176.883 40.5366 177.587 41.414 178.262C42.3249 178.962 43.2653 179.638 44.3365 180.072L44.4749 180.127C45.4147 180.495 47.1766 181.064 48.4602 180.856C48.2928 181.698 47.9678 182.605 48.2561 183.439C48.3894 183.827 48.8947 184.019 49.2043 183.69C49.8172 183.037 49.8655 182.175 50.0103 181.322C50.1616 180.435 50.2916 179.546 50.4075 178.654C50.6315 176.929 50.8059 175.188 50.8587 173.449C50.9134 171.663 50.8922 169.874 50.7963 168.09C50.7474 167.173 50.6856 166.258 50.5697 165.347C50.5201 164.959 50.4699 164.57 50.412 164.183C50.3907 164.042 50.3676 163.901 50.3425 163.761L51.8127 163.927C54.067 164.179 56.3227 164.407 58.5931 164.442C58.8615 164.447 59.0688 164.324 59.204 164.145C59.3475 164.38 59.5986 164.549 59.9578 164.548C63.1281 164.535 66.0809 163.496 68.9641 162.271C70.4183 161.654 71.8487 160.985 73.3048 160.373C74.6637 159.801 76.1159 159.394 77.442 158.75L80.9265 160.582C80.9516 160.672 80.9844 160.757 81.0192 160.829C81.2464 161.293 81.6938 161.545 82.1502 161.734C82.5886 161.916 83.043 161.973 83.4853 161.927C86.1278 163.315 88.7709 164.702 91.416 166.086L94.061 167.468C99.332 170.22 104.582 173.015 109.886 175.702L110.276 175.899C112.108 176.82 114.076 177.753 116.109 178.45C116.145 178.966 116.122 179.468 116.079 180.014L116.068 180.132C116.008 180.778 115.878 181.586 116.394 182.045C116.663 182.285 117.143 182.285 117.325 181.926C117.657 181.272 117.359 180.243 117.254 179.533C117.217 179.28 117.171 179.021 117.104 178.769C119.435 179.465 121.836 179.802 124.208 179.412C126.517 179.032 128.306 177.573 129.748 175.79C131.269 173.907 132.351 171.714 132.931 169.362C133.591 166.686 133.634 163.922 133.619 161.181C133.602 158.263 133.495 155.329 133.14 152.43C133.528 152.338 133.959 152.26 134.351 152.287C134.545 152.598 134.922 152.729 135.262 152.689C136.002 153.507 134.125 154.344 133.525 154.553C133.316 154.626 133.339 154.965 133.579 154.955L133.73 154.948C134.658 154.898 135.615 154.739 136.161 153.876C136.597 153.184 136.466 152.364 135.945 151.799C135.601 148.539 134.779 145.364 134.014 142.184C133.263 139.063 132.428 135.962 131.543 132.876L131.146 131.495C129.752 126.657 128.295 121.779 126.373 117.133C125.413 114.813 124.307 112.536 122.808 110.513C121.41 108.628 119.76 107.014 117.864 105.636C114.329 103.067 110.181 101.514 106.105 100.035L105.922 99.9691C103.81 99.2034 101.703 98.4281 99.6149 97.5979C97.7682 96.8644 95.999 95.9336 94.1608 95.1892C94.2207 95.0802 94.2786 94.9705 94.334 94.8589L94.3681 94.888C94.3739 94.8925 94.3797 94.897 94.3855 94.9015C94.5709 95.0299 94.8427 94.9667 94.995 94.8222C95.4251 94.4158 95.2795 93.9642 94.9924 93.5424L94.955 93.4882C94.6037 92.9954 94.2908 92.4742 93.9664 91.9633L93.7636 91.6433C93.2197 90.7899 92.648 89.9307 91.9226 89.225C91.5865 88.8979 91.219 88.6535 90.8295 88.4709C90.863 88.4006 90.5708 88.2561 90.4877 88.329C89.253 87.8755 87.833 87.971 86.487 88.0955L86.2308 87.2788ZM37.9868 162.391L39.7036 162.587C41.5917 162.802 43.4803 163.01 45.3697 163.217L49.4728 163.664C49.4837 163.898 49.5121 164.128 49.5172 164.304C49.5436 165.217 49.5635 166.131 49.5829 167.044C49.6208 168.875 49.579 170.707 49.4586 172.535C49.3421 174.305 49.1889 176.075 48.9501 177.834L48.9018 178.185L48.8735 178.371C48.6784 178.389 48.4872 178.482 48.3282 178.672C47.9813 179.088 46.7247 178.684 46.2336 178.509C45.4263 178.221 44.6667 177.735 43.9651 177.247C43.2802 176.771 42.6635 176.215 42.0706 175.63L41.5859 175.149C41.1037 174.669 40.6209 174.157 40.3255 173.553C39.9244 172.733 39.8729 171.726 39.7551 170.834C39.6103 169.736 39.4384 168.638 39.2562 167.545L37.9868 162.391ZM87.8105 150.865L87.9888 150.912C94.4556 152.635 100.913 154.408 107.4 156.055C110.61 156.869 113.835 157.625 117.049 158.425L117.569 158.555C120.105 159.197 122.671 159.97 124.613 161.814C124.684 161.882 124.788 161.778 124.721 161.705C122.628 159.472 119.652 158.527 116.794 157.707C116.266 157.556 115.737 157.408 115.209 157.258C119.095 155.869 123.043 154.661 127.082 153.799C128.122 153.577 129.174 153.414 130.213 153.191C130.938 153.036 131.645 152.811 132.362 152.624L132.926 152.482L132.934 154.269C132.943 156.8 132.939 159.329 132.81 161.86L132.786 162.329C132.635 165.145 132.401 168.02 131.404 170.675C130.594 172.833 129.302 174.866 127.614 176.438C126.759 177.233 125.84 177.852 124.705 178.158C123.65 178.442 122.546 178.475 121.462 178.399C116.263 178.036 111.635 175.205 107.119 172.86C99.7315 169.026 92.3436 165.194 84.9491 161.374C85.1493 161.238 85.3373 161.08 85.5085 160.902C86.4998 159.875 87.0232 158.47 87.3669 157.109C87.7326 155.661 87.9508 154.108 87.9765 152.612L87.8105 150.865ZM78.4018 162.854C78.3368 162.819 78.2608 162.863 78.2582 162.937C78.2351 163.503 78.5473 164.062 78.7803 164.572L78.8047 164.626C79.0886 165.258 79.3983 165.882 79.7195 166.495C80.3606 167.721 81.0269 168.933 81.7228 170.129C83.1209 172.534 84.6755 174.838 86.5121 176.932C86.9273 177.405 87.6096 176.799 87.3431 176.289C86.0595 173.834 84.5629 171.516 83.0224 169.217C82.2513 168.066 81.4807 166.915 80.7018 165.769C80.3767 165.291 80.0478 164.815 79.7098 164.346L79.5058 164.066L78.4018 162.854ZM1.70518 116.49C8.19458 116.687 14.6762 117.111 21.1347 117.776C27.1413 118.395 33.126 119.218 39.0766 120.243C40.3197 120.458 41.5608 120.681 42.8006 120.913L43.5447 121.053C44.7845 121.288 46.2992 121.386 47.4032 122.05C48.5671 122.75 48.8818 124.213 49.2694 125.419C49.7245 126.839 50.1686 128.262 50.5999 129.688C52.3148 135.352 53.881 141.065 55.2785 146.815C55.9718 149.67 56.5872 152.54 57.2355 155.404C57.8116 157.95 58.4476 160.467 59.1113 162.987C59.0295 162.923 58.9291 162.874 58.8081 162.848C55.5103 162.145 52.1442 161.84 48.7975 161.451L48.4737 161.413C45.0111 161.005 41.5485 160.6 38.0846 160.209L15.1468 157.623C13.7943 157.471 12.3453 157.45 11.0289 157.086C8.79066 156.468 8.26604 153.959 7.89009 151.961L7.87915 151.9C6.74684 145.865 5.84563 139.777 4.78928 133.725L1.70518 116.49ZM58.5776 155.97C59.4685 155.911 60.6871 155.094 61.363 155.152C61.0083 155.749 60.848 156.429 61.0528 157.156C61.6212 159.178 64.1941 158.132 65.4333 157.514C66.4491 157.007 67.4301 156.387 68.5554 156.149C69.8293 155.881 70.6925 156.389 71.7695 156.975C72.6533 157.456 73.6163 157.801 74.607 157.98C75.1336 158.075 75.6338 158.085 76.1333 158.048C76.1629 158.072 76.197 158.095 76.2356 158.116L76.4996 158.254C75.3055 158.309 74.0888 158.679 72.9777 159.017C71.8261 159.367 70.6957 159.79 69.5712 160.222L68.4646 160.648C65.7358 161.695 62.9112 162.69 59.9578 162.681C59.7453 162.681 59.5715 162.739 59.4344 162.836L58.5776 155.97ZM63.5601 149.634C62.6807 149.526 61.8684 149.641 61.1654 150.216C60.3176 150.908 59.7479 152.057 58.5294 152.132C58.174 152.154 58.091 152.655 58.4444 152.759C59.352 153.029 60.0865 152.536 60.7045 151.898L61.1197 151.462C61.7306 150.828 62.2939 150.338 63.3309 150.376C64.4407 150.417 65.5524 150.674 66.6551 150.805C67.9046 150.953 69.1534 151.079 70.4067 151.188C70.4653 151.193 70.475 151.101 70.4202 151.088L69.0169 150.737L63.5601 149.634ZM64.4091 146.028L64.2643 146.014C62.9865 145.89 61.8181 145.885 60.6775 146.574L60.4586 146.706C59.4299 147.333 58.3098 148.071 57.6668 149.086C57.5618 149.252 57.7356 149.448 57.9114 149.405C59.148 149.108 60.0518 148.199 61.0914 147.519C62.2584 146.755 63.4635 146.881 64.7941 146.999C66.0822 147.114 67.3696 147.272 68.6455 147.487C69.8441 147.69 71.0466 148.008 72.2568 148.11V148.108C72.3952 148.108 72.4737 147.899 72.3327 147.828C71.1045 147.213 69.6812 146.923 68.3449 146.641L64.4091 146.028ZM25.6003 133.37C25.7238 132.778 24.9971 132.504 24.6604 132.974L24.589 133.072C23.8615 134.072 22.8091 135.326 22.8631 136.596C22.2233 136.61 21.5602 137 21.3111 137.578C21.1959 137.846 21.1573 138.163 21.1824 138.491C20.6011 138.537 19.967 138.919 19.6117 139.291C19.0227 139.909 18.9763 140.782 19.3993 141.503C20.3204 143.075 22.3327 143.648 24.0321 143.775L24.0927 143.78C25.8474 143.902 28.376 143.869 29.5798 142.359C30.7404 140.903 29.4574 139.725 28.1417 139.084C28.4841 138.771 28.6618 138.322 28.4951 137.848C28.2022 137.014 27.1684 136.692 26.5845 136.113C25.8719 135.408 25.402 134.439 25.5893 133.426L25.6003 133.37ZM24.6359 134.651C24.8291 135.494 25.3048 136.265 25.9665 136.876C26.2202 137.11 26.497 137.318 26.7911 137.497L26.8265 137.517C27.0879 137.664 27.7297 137.939 27.6808 138.27C27.6299 138.608 26.5839 139.139 26.2987 139.139C26.2337 139.139 26.197 139.24 26.2633 139.27C26.7802 139.499 27.2315 139.597 27.7361 139.355C28.0741 139.7 28.4017 140.058 28.7268 140.413C29.301 141.04 29.1047 141.701 28.4256 142.168C27.3351 142.919 25.6781 142.9 24.4055 142.846C23.1251 142.791 21.7559 142.504 20.7562 141.649L20.7124 141.611C20.1685 141.127 19.6722 140.305 20.5045 139.838C20.8309 139.656 21.183 139.666 21.4926 139.578C21.7823 140.147 22.2522 140.603 22.8251 140.691C23.2886 140.762 23.6079 140.178 23.1863 139.898L23.0917 139.84C22.5625 139.501 22.1106 138.979 22.1229 138.3C22.1306 137.828 22.7878 137.233 23.2159 137.676L23.2352 137.697C23.5931 138.102 24.224 137.592 23.9884 137.143L23.9774 137.123L24.6359 134.651ZM108.155 111.204C108.156 111.103 108.014 111.065 107.965 111.153C107.134 112.619 106.699 114.416 106.256 116.031C105.792 117.723 105.418 119.432 105.082 121.154C104.4 124.64 104.037 128.106 104.013 131.659C104.009 132.166 104.834 132.302 104.915 131.782C105.45 128.325 105.963 124.865 106.502 121.41C106.774 119.673 107.09 117.941 107.392 116.209L108.155 111.204ZM99.9257 113.758C99.987 113.555 99.6935 113.488 99.6184 113.673C97.9502 117.778 97.3853 122.43 98.4563 126.76C98.6201 127.423 99.588 127.136 99.4644 126.482L99.9257 113.758ZM78.4082 110.11C78.4172 109.959 78.2209 109.935 78.1469 110.039C77.357 111.156 77.0287 112.651 75.6421 113.228C74.9495 113.516 74.1706 113.466 73.559 113.952C73.1496 114.278 72.8361 114.791 73.1432 115.284C73.2423 115.444 73.5191 115.523 73.6537 115.351C73.85 115.098 73.9536 114.797 74.2201 114.608C74.5961 114.341 75.1027 114.324 75.5333 114.199C76.0908 114.037 76.582 113.753 76.9843 113.333L78.4082 110.11ZM65.2035 91.4891C65.1217 91.4479 65.0438 91.4743 64.9917 91.5446C64.917 91.6452 64.926 91.7433 65.0174 91.8123C64.8958 92.062 64.7522 92.6864 64.7316 92.7773C64.648 93.1463 64.5598 93.5127 64.4671 93.8784C64.2804 94.617 64.1162 95.3614 63.9296 96.1C63.7313 96.8831 63.495 97.6579 63.2324 98.4216C63.215 98.4713 63.1964 98.5216 63.177 98.5726L63.1468 98.65L63.1397 98.6384C63.0863 98.5539 62.9749 98.6132 62.9878 98.7022C63.0007 98.7841 63.0168 98.8648 63.0309 98.9467L63.0032 99.0196C62.8314 99.4834 62.7136 99.9723 63.029 100.382C63.1468 100.535 63.2768 100.625 63.4384 100.652C63.6985 101.51 64.0235 102.351 64.3724 103.16L64.4742 103.396C64.9872 104.575 65.5337 105.739 66.3506 106.743C67.2415 107.839 68.4678 108.588 69.2441 109.789C69.6053 110.348 69.857 110.935 70.0604 111.565L70.1376 111.805C70.2825 112.252 70.4492 112.684 70.867 112.946C71.0002 113.029 71.1998 113.003 71.3073 112.889C72.1634 111.981 71.2674 110.285 70.7505 109.406C70.0327 108.183 68.9944 107.401 67.9541 106.478C66.8328 105.484 66.1176 104.154 65.4256 102.844C65.002 102.041 64.5926 101.221 64.1619 100.415C64.6119 100.016 64.7561 99.2241 64.9087 98.6738L64.9222 98.6242C65.1745 97.743 65.3747 96.8386 65.5009 95.9297C65.6226 95.0563 65.6734 94.1958 65.6412 93.3172L65.6322 93.0934L65.2035 91.4891ZM63.5304 95.6466C63.6296 95.5098 63.4648 95.355 63.329 95.3834C62.4992 95.5556 61.6888 96.0588 60.944 96.4658L60.8648 96.509C60.2706 96.8303 59.6726 97.2237 59.3604 97.8475C59.0212 98.5255 59.0495 99.3066 59.0958 100.044L59.0997 100.113C59.157 100.997 59.166 101.915 59.3527 102.783C59.4479 103.227 59.849 103.352 60.1921 103.247C60.6009 104.539 61.7473 105.491 62.5855 106.511C63.6534 107.812 63.4526 109.567 63.3406 111.133C63.2955 111.767 64.0821 111.947 64.487 111.609L65.4211 110.831C65.5762 110.702 65.732 110.571 65.8865 110.441C66.0191 110.329 66.1504 110.217 66.2811 110.102L66.4755 109.93C66.5617 109.852 66.9428 109.426 67.0542 109.408C67.3239 109.365 67.9651 110.078 68.1846 110.301L68.2123 110.329C68.6249 110.735 68.9982 111.172 69.3459 111.635C69.4096 111.72 69.5345 111.649 69.4888 111.551C69.1772 110.882 68.8154 110.243 68.3854 109.645L68.2985 109.526C68.0127 109.139 67.629 108.457 67.1237 108.343C66.5077 108.204 65.8923 108.824 65.4436 109.168L65.4153 109.189C65.2016 109.35 64.9911 109.513 64.7806 109.677C64.8025 108.512 64.6557 107.334 64.0551 106.329C63.6315 105.621 62.9974 105.095 62.4548 104.486C61.8503 103.809 61.5349 102.976 60.9877 102.269C60.9176 102.178 60.8204 102.129 60.7154 102.114C60.6942 101.546 60.6105 100.973 60.5461 100.412L60.5275 100.244C60.4624 99.6337 60.3086 98.8886 60.6066 98.3171C60.888 97.7772 61.5336 97.3966 62.0119 97.0302L62.4026 96.7264L63.5304 95.6466ZM90.4465 89.1953C90.6956 89.3398 90.9293 89.5204 91.1411 89.7449C91.8073 90.4538 92.2843 91.3363 92.7478 92.1845C92.9976 92.6419 93.2383 93.1037 93.49 93.5598C93.5995 93.7578 93.7121 93.9539 93.8261 94.15C93.8788 94.2403 94.0353 94.4197 94.1125 94.53C94.0263 94.6512 93.9374 94.7706 93.8467 94.888C93.8119 94.9331 91.4211 97.5443 90.5875 98.5661C89.311 100.131 88.1703 101.784 87.1951 103.554C86.2404 105.287 85.513 107.122 84.6285 108.888C84.1856 109.773 83.6913 110.651 83.0611 111.416C83.0366 111.446 83.0108 111.474 82.9857 111.504C82.7456 110.853 82.1289 110.155 81.8264 109.754L81.7981 109.717C81.1112 108.788 80.3857 107.889 79.6455 107.004C78.9683 106.196 78.2743 105.406 77.5636 104.628L77.2965 104.337C76.8015 103.801 76.1726 102.999 75.4477 102.616C75.525 102.477 75.6151 102.34 75.7181 102.204C76.3972 101.315 77.3577 100.669 78.3052 100.087L78.9193 99.7117C81.2348 98.2971 83.5149 96.8167 85.5252 94.9783C86.5887 94.0062 87.6379 92.987 88.5321 91.853L88.8481 91.4517L90.4465 89.1953ZM86.5822 88.4948C87.6669 88.5864 88.8378 88.5644 89.8401 88.9186C88.9492 89.763 88.1021 90.6744 87.2324 91.533C87.1551 90.9524 86.9968 90.379 86.8623 89.8126" fill="black"/>
<path fill-rule="evenodd" clip-rule="evenodd" d="M75.4921 34.8008C67.77 34.8008 59.7827 40.8011 56.9522 44.6301C54.5724 47.8494 53.2907 62.4065 53.2907 72.2445C53.2907 74.3016 52.1584 78.1804 52.4886 80.1484C53.7001 87.3602 58.9767 93.409 69.4212 93.409C79.8656 93.409 87.3547 89.2586 95.1175 78.1158C98.8842 78.1158 100.71 75.2202 100.736 70.6505C100.763 66.0809 97.1004 64.4181 97.1004 64.4181C97.1004 64.4181 98.4062 46.3839 95.1175 41.6887C91.8286 36.9934 83.2136 34.8008 75.4921 34.8008Z" fill="white"/>
<path fill-rule="evenodd" clip-rule="evenodd" d="M78.741 32.2508C73.8654 31.7559 69.0877 32.1717 64.2829 33.0321C63.916 33.0988 63.7074 33.3402 63.6302 33.6304C61.3669 33.7341 59.1016 33.9005 56.8415 34.0246C56.0214 34.0696 55.556 34.882 55.93 35.6156C56.0046 35.7613 56.0825 35.9031 56.1611 36.045L56.0619 36.0122C55.3821 35.7935 54.6477 35.6857 53.9853 36.0328C53.142 36.4745 52.8118 37.4492 52.9978 38.3462C53.0454 38.5753 53.1259 38.7948 53.2167 39.0089C53.0319 38.9967 52.8452 39.0008 52.6605 39.0253C51.6762 39.1562 50.9443 39.9129 50.8928 40.9204C50.8162 42.4417 51.794 43.9851 52.9463 45.0743C52.7789 45.4194 52.7152 45.8256 52.7847 46.2374C52.9231 47.0513 53.5211 47.5387 54.2144 47.8566C53.9254 48.777 53.7889 49.7393 53.8694 50.7226C53.8964 51.051 54.1829 51.3221 54.4848 51.3886C53.3583 54.4989 52.7879 57.8383 52.3779 61.0922C52.085 63.4073 51.9408 65.7358 51.9234 68.0683C51.915 69.1217 51.9324 70.1757 51.9762 71.2291L51.9942 71.6239C52.0483 72.7624 52.0515 73.9577 52.2556 75.084C51.5591 76.2716 51.279 77.7455 51.1606 79.0763C51.0138 80.7231 51.2462 82.4216 51.7644 83.9884C53.7201 89.9075 59.6224 93.6431 65.5504 94.6139C71.0382 95.5125 77.3879 94.303 80.5943 89.3063C80.6451 89.2276 80.5376 89.1618 80.4752 89.2141C78.1803 91.0841 75.5191 91.9188 72.6275 92.3252C67.6284 93.0258 62.0093 91.8369 57.997 88.6851C56.0716 87.1718 54.6831 84.9683 54.0722 82.5977C53.7606 81.3856 53.6531 80.122 53.7761 78.8744C53.9009 77.6094 54.4597 76.5296 54.8118 75.3337C54.9303 74.9299 54.8054 74.5551 54.5588 74.288C54.49 73.3172 54.3264 72.3386 54.264 71.3704C54.1945 70.2699 54.1526 69.1701 54.1372 68.0683C54.1089 65.7835 54.2041 63.4944 54.396 61.2191C54.7468 57.0526 55.6783 52.9873 56.2248 48.8562C56.4276 49.0382 56.7179 49.1129 57.0217 48.9539L57.0533 48.9366L57.2193 48.8414C57.229 48.8414 57.2393 48.8427 57.249 48.8439C58.3845 48.9545 59.5625 48.7964 60.6504 48.4568C61.7891 48.1024 62.8455 47.5571 63.7892 46.8304C63.9688 47.7424 64.0435 48.664 64.0448 49.5938C64.046 50.1746 64.6595 50.476 65.1468 50.2279C67.3046 49.1289 69.3664 47.8625 71.3234 46.4392C71.5519 47.613 71.7804 48.7867 72.0102 49.9619C72.099 50.4147 72.6739 50.5973 73.0427 50.382C74.5085 49.527 75.7747 48.4078 76.806 47.0771C77.0113 47.4716 77.2179 47.8661 77.4259 48.2597L77.7387 48.8494C78.0471 49.4288 78.461 50.0697 79.1369 50.255C79.8521 50.4513 80.4494 49.9865 80.6895 49.3375C80.7629 49.1358 80.8312 48.9285 80.8936 48.7199C81.5032 50.1147 82.1914 51.478 82.969 52.7787C84.136 54.7295 85.5368 56.4677 86.9337 58.251C87.3579 58.7924 88.084 58.2755 88.1426 57.7494C88.1767 57.44 88.205 57.1291 88.2295 56.8195C89.0432 58.4659 89.8929 60.0968 90.8179 61.6805L90.6853 62.2008C90.3036 63.7384 89.9869 65.2868 89.6418 66.8324C89.5305 67.3317 89.795 68.0445 90.3763 68.1296C91.0709 68.2309 91.7275 68.5863 92.4388 68.3418C93.2145 68.0748 93.3677 67.4026 93.734 66.7659C93.8074 66.6389 93.8923 66.5221 93.9837 66.4118L94.0069 66.4421C94.0636 66.517 94.2 66.435 94.1659 66.3492L94.126 66.2499C94.4408 65.9151 94.817 65.6364 95.1631 65.3358C95.9856 65.1972 96.9108 65.3494 97.4775 65.6842C98.7681 66.4473 99.361 68.0206 99.3732 69.4675C99.3881 71.1608 98.8647 73.0637 97.9807 74.5118C97.5916 75.1485 97.0585 75.7233 96.3541 76.0058C95.655 76.2864 94.8975 76.1993 94.1865 76.4638C93.716 76.6399 93.4263 77.1637 93.7102 77.6378C93.7295 77.6707 93.7507 77.7004 93.7713 77.732L93.5602 78.0132C93.4147 78.2081 93.2628 78.4171 93.1212 78.6344C92.7594 79.0518 92.3789 79.4537 92.0101 79.8639C91.329 80.6206 90.6679 81.3979 89.9978 82.1655C89.365 82.8893 88.6962 83.5698 88.0068 84.2387C87.3553 84.8728 86.5416 85.4063 85.9436 86.0823C85.3617 86.7422 85.2033 87.8943 86.1612 88.2762C87.2201 88.6993 88.158 87.7072 88.8713 87.0454L88.9015 87.0177C90.2083 85.8114 91.3889 84.4335 92.3262 82.9164C93.2551 83.5498 94.5979 83.6104 95.5228 82.977C96.0094 82.6435 96.3827 82.0836 96.5641 81.474C96.7352 81.5127 96.9062 81.5346 97.0729 81.5321C97.1587 81.5824 97.2448 81.6307 97.3319 81.6759C98.0215 82.0358 98.8687 81.8752 99.1841 81.1102C99.4714 80.4155 99.1754 79.6272 98.9166 78.9576L98.8632 78.8196C98.7164 78.4383 98.5545 78.0223 98.3532 77.6307C98.9135 77.2082 99.3924 76.6831 99.7975 76.0864C101.159 74.0751 101.839 71.1343 101.538 68.7353C101.357 67.2872 100.679 65.7874 99.5678 64.8114L99.6085 64.705C99.9199 63.9131 100.203 63.1181 100.386 62.2812C100.601 61.3023 100.706 60.288 100.801 59.2914C101.002 57.1864 100.948 55.0336 100.68 52.9369C100.177 48.99 98.9013 45.1154 96.6369 41.8311C97.279 41.0606 97.7875 40.1541 97.5224 39.1112C97.4012 38.6326 97.1253 38.1787 96.709 37.9045C96.4793 37.7533 96.2058 37.7302 95.976 37.6047L95.9069 37.5666C95.8059 37.5075 95.8831 37.5138 95.9433 37.2393C96.1813 36.1431 95.9841 35.0839 94.7806 34.7199C93.6477 34.3777 92.5759 35.1043 91.9058 35.9701C90.151 34.7225 87.8394 34.0696 85.8059 33.5147C83.4943 32.8861 81.1221 32.4936 78.741 32.2508ZM97.691 69.0198C97.6993 68.127 96.8548 67.5761 96.0237 67.7226C95.4657 67.82 95.0001 68.1535 94.5631 68.4986L94.35 68.6676C93.8177 69.0869 93.2061 69.5384 92.8894 70.1312C92.424 71.0066 93.407 72.1845 94.3249 71.571C94.9548 71.1479 95.3584 70.4699 95.7715 69.8403L95.8143 69.7752C96.002 69.4933 96.1665 69.1933 96.4237 68.9669L96.4792 68.9179C96.5637 68.8456 96.6545 68.7798 96.7637 68.7489C96.9742 68.6882 97.3643 68.7734 97.4572 69.0243L97.4655 69.0501C97.4995 69.1772 97.6897 69.1495 97.691 69.0198Z" fill="black"/>
<path fill-rule="evenodd" clip-rule="evenodd" d="M62.4594 81.3805C63.3825 81.7443 64.4729 81.8301 65.4256 81.5199C66.3365 81.2238 67.1637 80.5639 67.6639 79.7343C68.11 78.9957 68.296 78.1185 68.0327 77.2444C68.0198 77.2025 67.9793 77.176 67.9394 77.1651C67.7244 77.3618 67.5911 77.5572 67.4579 77.7521C67.2332 78.0798 67.0086 78.4042 66.7002 78.6842C66.2509 79.0919 65.6458 79.4234 65.0458 79.5324C64.4581 79.6395 63.8562 79.5447 63.3297 79.2628C63.0097 79.0912 62.751 78.8622 62.4948 78.6319C62.2154 78.381 61.9405 78.1268 61.5562 77.9849C61.2485 77.8714 60.9247 77.9675 60.6762 78.1572C60.4091 78.361 60.2173 78.6803 60.2276 79.0144C60.2443 79.5318 60.4702 79.9633 60.7979 80.3188C61.2408 80.8006 61.8671 81.147 62.4594 81.3805ZM63.555 68.4903C62.5276 69.116 60.9633 70.5751 62.068 72.1265C63.3683 73.494 65.2409 71.9259 66.1633 71.2163C67.0189 70.6667 67.9799 72.0807 67.1862 72.7225C60.5192 77.6708 57.8136 68.6535 63.0355 67.7543C63.6103 67.6549 63.824 68.2961 63.555 68.4903ZM74.3567 59.8193C72.9572 59.7522 71.7232 60.3824 70.3894 60.6686C69.1567 60.9334 67.9426 60.7744 66.7433 60.4377C64.798 59.8911 63.994 62.8769 65.9129 63.4587C67.3105 63.8825 68.782 63.9119 70.2162 63.6935C71.4895 63.4994 72.5575 62.8776 73.7722 62.5157C74.8144 62.2052 76.0406 62.3342 77.1414 62.4804L77.5689 62.5381C78.2042 62.6238 78.8428 62.7099 79.4717 62.8343C80.0169 62.9424 80.5615 63.1403 81.1183 63.1632C81.1821 63.1659 81.2355 63.0836 81.1956 63.0286C80.5487 62.1383 79.3018 61.4357 78.3098 60.9672L78.2428 60.9356C77.0185 60.3634 75.7201 59.8844 74.3567 59.8193ZM74.8697 66.3848V66.3538C74.8678 65.4843 74.3631 63.4995 73.1143 63.4995C72.3347 63.4995 71.8609 64.8502 71.7792 66.2429L71.776 66.2996C71.7399 67.1653 71.9768 69.0579 73.1143 69.0579C74.264 69.0579 74.8581 67.2653 74.8697 66.3848ZM56.4888 66.3848V66.3538C56.4907 65.4843 56.9954 63.4995 58.2442 63.4995C59.0045 63.4995 59.4738 64.7837 59.5729 66.1384L59.5793 66.2429C59.6289 67.0795 59.4068 69.0579 58.2442 69.0579C57.0946 69.0579 56.5004 67.2653 56.4888 66.3848ZM56.5081 58.7604L56.4186 58.7624C54.9593 58.8131 53.4588 59.6795 53.0693 61.1349C53.0494 61.2104 53.1421 61.2613 53.1974 61.2095C54.3967 60.0835 56.0099 61.1594 57.2117 61.7233L57.6527 61.9277C59.2015 62.6499 60.9627 63.499 62.6821 62.9608C63.499 62.7052 64.0178 61.864 63.7848 61.0143C63.5775 60.2584 62.6673 59.6231 61.8787 59.8959L61.8427 59.9089C61.2022 60.1546 60.4149 59.9057 59.7531 59.6603L59.2098 59.4558C58.3357 59.1234 57.4583 58.7514 56.5081 58.7604Z" fill="black"/>
<path d="M66.2763 60.3674C68.4172 60.1152 72.3109 59.9471 73.9901 59.8945L72.8881 62.1012L66.7485 62.574L66.2763 60.3674Z" fill="black"/>
<path d="M56.6733 58.791C58.4365 59.0432 61.2911 59.6316 62.498 59.8943C61.7109 60.4197 60.0737 61.439 59.8218 61.3129C59.5699 61.1868 57.7228 60.3147 56.8307 59.8943L56.6733 58.791Z" fill="black"/>
</svg>
